<svg width="116" height="32" viewBox="0 0 116 32" fill="none" xmlns="http://www.w3.org/2000/svg">
<path d="M36.5733 14.6774V1.05176H46.1344V3.15385H38.8859V6.9109H45.6138V9.01299H38.8859V14.6774H36.5721H36.5733Z" fill="#0E0E11"/>
<path d="M47.6202 1.4795C47.6202 0.642966 48.2565 0 49.0856 0C49.9147 0 50.551 0.641834 50.551 1.4795C50.551 2.31717 49.934 2.97824 49.0856 2.97824C48.2372 2.97824 47.6202 2.31604 47.6202 1.4795ZM47.948 14.6773V4.36039H50.2232V14.6773H47.948Z" fill="#0E0E11"/>
<path d="M52.5358 14.6773V4.36037H54.3675L54.5603 5.87836C55.1966 4.8075 56.4884 4.04907 58.0105 4.04907C60.1892 4.04907 61.6149 5.52857 61.6149 7.84461V14.6773H59.3397V7.9612C59.3397 6.81224 58.5878 6.05381 57.3152 6.05381C55.8306 6.05381 54.828 7.08505 54.8087 8.42871V14.6773H52.5335H52.5358Z" fill="#0E0E11"/>
<path d="M63.2934 11.8155C63.3127 9.40213 65.6843 8.89613 67.6691 8.66181C69.2116 8.48635 70.3492 8.42862 70.3685 7.6102C70.3492 6.59821 69.5779 5.936 68.2668 5.936C66.9557 5.936 65.9531 6.67518 65.8181 7.74604H63.5237C63.7358 5.56584 65.6639 4.04785 68.3042 4.04785C70.9446 4.04785 72.5835 5.56584 72.5835 7.76641V12.4381C72.5835 12.7302 72.7378 12.8864 73.0848 12.8864H73.644V14.6772H72.5642C71.523 14.6772 70.8868 14.2493 70.7132 13.4705C70.6747 13.3731 70.6361 13.2373 70.6168 13.1196C70.0191 14.2289 68.9008 14.8911 67.1667 14.8911C64.8144 14.8911 63.273 13.7421 63.2923 11.8155H63.2934ZM70.3685 10.8035V9.36251C69.9828 9.96585 68.9995 10.1017 67.9198 10.2387C66.6472 10.3949 65.5867 10.5692 65.5867 11.6593C65.5867 12.5547 66.3001 13.0799 67.6305 13.0799C69.1923 13.0799 70.3685 12.1845 70.3685 10.8024V10.8035Z" fill="#0E0E11"/>
<path d="M75.1491 14.6773V4.36037H76.9808L77.1736 5.87836C77.8098 4.8075 79.1017 4.04907 80.6237 4.04907C82.8025 4.04907 84.2282 5.52857 84.2282 7.84461V14.6773H81.953V7.9612C81.953 6.81224 81.201 6.05381 79.9285 6.05381C78.4439 6.05381 77.4412 7.08505 77.422 8.42871V14.6773H75.1468H75.1491Z" fill="#0E0E11"/>
<path d="M85.8683 9.4407C85.8683 6.05381 88.1241 4.04907 91.0923 4.04907C93.8881 4.04907 95.7765 5.781 95.9693 8.3506H93.7327C93.5206 6.92997 92.518 6.01419 91.0719 6.01419C89.3366 6.01419 88.1797 7.33748 88.1797 9.4407C88.1797 11.699 89.4523 13.003 91.1479 13.003C92.5361 13.003 93.5002 12.1077 93.7315 10.6282H95.9681C95.6982 13.2951 93.8665 14.9693 91.149 14.9693C87.8145 14.9693 85.8671 12.5559 85.8671 9.4407H85.8683Z" fill="#0E0E11"/>
<path d="M97.4153 1.4795C97.4153 0.642966 98.0516 0 98.8806 0C99.7097 0 100.346 0.641834 100.346 1.4795C100.346 2.31717 99.729 2.97824 98.8806 2.97824C98.0323 2.97824 97.4153 2.31604 97.4153 1.4795ZM97.7431 14.6773V4.36039H100.018V14.6773H97.7431Z" fill="#0E0E11"/>
<path d="M101.831 11.8155C101.85 9.40213 104.222 8.89613 106.206 8.66181C107.749 8.48635 108.886 8.42862 108.906 7.6102C108.886 6.59821 108.115 5.936 106.804 5.936C105.493 5.936 104.49 6.67518 104.355 7.74604H102.061C102.273 5.56584 104.201 4.04785 106.842 4.04785C109.482 4.04785 111.121 5.56584 111.121 7.76641V12.4381C111.121 12.7302 111.275 12.8864 111.622 12.8864H112.181V14.6772H111.102C110.06 14.6772 109.424 14.2493 109.251 13.4705C109.212 13.3731 109.173 13.2373 109.154 13.1196C108.556 14.2289 107.438 14.8911 105.704 14.8911C103.352 14.8911 101.81 13.7421 101.83 11.8155H101.831ZM108.906 10.8035V9.36251C108.52 9.96585 107.537 10.1017 106.457 10.2387C105.184 10.3949 104.124 10.5692 104.124 11.6593C104.124 12.5547 104.837 13.0799 106.168 13.0799C107.73 13.0799 108.906 12.1845 108.906 10.8024V10.8035Z" fill="#0E0E11"/>
<path d="M113.725 14.6773V0.078125H116V14.6773H113.725Z" fill="#0E0E11"/>
<path d="M36.5734 31.7079V18.0811H39.427L43.6484 28.9039L47.8505 18.0811H50.7041V31.7079H48.3904V22.1109L44.651 31.7079H42.6265L38.8871 22.1302V31.7079H36.5734Z" fill="#0E0E11"/>
<path d="M52.7672 28.8463C52.7865 26.4329 55.158 25.9269 57.1429 25.6926C58.6853 25.5171 59.8229 25.4594 59.8422 24.641C59.8229 23.629 59.0517 22.9668 57.7406 22.9668C56.4295 22.9668 55.4268 23.7059 55.2919 24.7768H52.9974C53.2095 22.5966 55.1376 21.0786 57.778 21.0786C60.4184 21.0786 62.0573 22.5966 62.0573 24.7972V29.4689C62.0573 29.7609 62.2115 29.9171 62.5586 29.9171H63.1177V31.7079H62.038C60.9968 31.7079 60.3605 31.28 60.187 30.5012C60.1484 30.4039 60.1099 30.268 60.0906 30.1503C59.4929 31.2597 58.3746 31.9219 56.6404 31.9219C54.2881 31.9219 52.7468 30.7729 52.766 28.8463H52.7672ZM59.8422 27.8343V26.3933C59.4566 26.9966 58.4732 27.1325 57.3935 27.2694C56.121 27.4256 55.0605 27.6 55.0605 28.6901C55.0605 29.5855 55.7739 30.1107 57.1043 30.1107C58.6661 30.1107 59.8422 29.2153 59.8422 27.8331V27.8343Z" fill="#0E0E11"/>
<path d="M68.8839 31.7081C66.6666 31.7081 65.4723 30.5987 65.4723 28.5544V23.3371H63.6791V21.3901H65.4723V17.8662H67.7474V21.3901H70.389V23.3371H67.7474V28.3982C67.7474 29.2743 68.1909 29.7611 69.0393 29.7611H70.1961V31.7081H68.885H68.8839Z" fill="#0E0E11"/>
<path d="M71.294 26.4715C71.294 23.0846 73.5499 21.0798 76.5181 21.0798C79.3138 21.0798 81.2023 22.8118 81.3951 25.3814H79.1585C78.9464 23.9607 77.9437 23.045 76.4977 23.045C74.7624 23.045 73.6055 24.3682 73.6055 26.4715C73.6055 28.7298 74.8781 30.0338 76.5737 30.0338C77.9619 30.0338 78.9259 29.1384 79.1573 27.6589H81.3939C81.124 30.3259 79.2923 32.0001 76.5748 32.0001C73.2403 32.0001 71.2929 29.5867 71.2929 26.4715H71.294Z" fill="#0E0E11"/>
<path d="M83.2075 31.708V17.1077H85.4826V22.4993C86.1768 21.6424 87.3529 21.0787 88.6822 21.0787C90.8609 21.0787 92.2866 22.5582 92.2866 24.8742V31.7068H90.0114V24.9908C90.0114 23.8418 89.2595 23.0834 88.0448 23.0834C86.5023 23.0834 85.4996 24.1146 85.4804 25.4583V31.7068H83.2052L83.2075 31.708Z" fill="#0E0E11"/>
<path d="M26.081 5.8297L26.9486 1.10594C26.9543 1.07764 26.9327 1.05273 26.9044 1.05273H1.97393C1.95238 1.05273 1.9331 1.06858 1.9297 1.09009L0.042417 11.9605C-0.258141 13.6913 1.07679 15.2738 2.83591 15.2738H6.6649L8.01458 8.15026H23.292C24.661 8.15026 25.8337 7.17449 26.081 5.83083V5.8297Z" fill="#0E0E11"/>
<path d="M6.61383 15.215L4.3398 28.4875C4.04378 30.216 5.37758 31.794 7.13442 31.794H10.9328C10.9543 31.794 10.9736 31.7782 10.977 31.7567L12.6919 22.3103H20.9374C22.3064 22.3103 23.4791 21.3345 23.7264 19.9908L24.594 15.2671C24.5997 15.2388 24.5781 15.2139 24.5498 15.2139H6.61383V15.215Z" fill="#0E0E11"/>
</svg>
