<svg width="42" height="42" viewBox="0 0 42 42" fill="none" xmlns="http://www.w3.org/2000/svg">
<circle cx="21" cy="21" r="21" fill="#FAFAFA"/>
<circle cx="21" cy="21" r="10.35" fill="#30785D" stroke="#FAFAFA" stroke-width="0.3"/>
<g clip-path="url(#clip0_262_2153)">
<path d="M31.5002 21.0637C31.5002 15.2283 26.7988 10.498 21.0002 10.498C15.1989 10.4994 10.4976 15.2283 10.4976 21.065C10.4976 26.3373 14.3379 30.7079 19.3569 31.5007V24.1179H16.6926V21.065H19.3596V18.7353C19.3596 16.088 20.928 14.6259 23.3259 14.6259C24.4757 14.6259 25.6766 14.8319 25.6766 14.8319V17.4307H24.3523C23.049 17.4307 22.6421 18.2457 22.6421 19.0818V21.0637H25.5532L25.0886 24.1165H22.6408V31.4994C27.6598 30.7066 31.5002 26.336 31.5002 21.0637Z" fill="#FAFAFA"/>
</g>
<defs>
<clipPath id="clip0_262_2153">
<rect width="21" height="21" fill="white" transform="translate(10.5 10.5)"/>
</clipPath>
</defs>
</svg>
