<svg width="43" height="42" viewBox="0 0 43 42" fill="none" xmlns="http://www.w3.org/2000/svg">
<circle cx="21.5" cy="21" r="21" fill="#FAFAFA"/>
<circle cx="21.5" cy="21" r="10.35" fill="#30785D" stroke="#FAFAFA" stroke-width="0.3"/>
<g clip-path="url(#clip0_262_2160)">
<path d="M11 12.0041C11 11.1733 11.6904 10.5 12.5422 10.5H30.4578C31.3096 10.5 32 11.1733 32 12.0041V29.9959C32 30.8267 31.3096 31.5 30.4578 31.5H12.5422C11.6904 31.5 11 30.8267 11 29.9959V12.0041ZM17.4877 28.0796V18.5968H14.3364V28.0796H17.4877ZM15.9127 17.3014C17.0113 17.3014 17.6951 16.5743 17.6951 15.6634C17.6754 14.7328 17.0126 14.0254 15.9337 14.0254C14.8548 14.0254 14.15 14.7341 14.15 15.6634C14.15 16.5743 14.8338 17.3014 15.8917 17.3014H15.9127ZM22.3544 28.0796V22.7837C22.3544 22.5002 22.3754 22.2167 22.4594 22.0146C22.6865 21.4489 23.2049 20.8622 24.0764 20.8622C25.217 20.8622 25.6724 21.7311 25.6724 23.0068V28.0796H28.8237V22.6406C28.8237 19.7269 27.2698 18.3724 25.196 18.3724C23.5239 18.3724 22.7744 19.2911 22.3544 19.9382V19.971H22.3334C22.3404 19.96 22.3474 19.9491 22.3544 19.9382V18.5968H19.2044C19.2438 19.4867 19.2044 28.0796 19.2044 28.0796H22.3544Z" fill="#FAFAFA"/>
</g>
<defs>
<clipPath id="clip0_262_2160">
<rect width="21" height="21" fill="white" transform="translate(11 10.5)"/>
</clipPath>
</defs>
</svg>
